# xmcd CD database file
#
# Track frame offsets:
#	183
#	11283
#	72453
#	103890
#	117018
#	145833
#	170835
#	184335
#	226190
#	238930
#	252633
#
# Disc length: 3566 seconds
#
# Revision: 0
# Processed by: cddbd v1.5.1PL2 Copyright (c) Steve Scherf et al.
# Submitted via: CDex 1.51
#
DISCID=9e0dec0b
DTITLE=Fred Ho and The Afro-Asian Music Ensemble - The Underground Railroad to My Heart
DYEAR=1994
DGENRE=Jazz
TTITLE0=Joys and Solos
TTITLE1=The Underground Railroad to My Heart Suite
TTITLE2=An Bayan Ko (For My Country)
TTITLE3=Kang Ding Love Song
TTITLE4=Strange Fruit Revisited
TTITLE5=Lan Hua Hua (Blue Flower)
TTITLE6=Bambaya
TTITLE7=Caravan
TTITLE8=Auld Lang Syne
TTITLE9=The Monkey Theme
TTITLE10=The Pig Theme
EXTD=YEAR: 1994
EXTT0=
EXTT1=
EXTT2=
EXTT3=
EXTT4=
EXTT5=
EXTT6=
EXTT7=
EXTT8=
EXTT9=
EXTT10=
PLAYORDER=
